<svg width="375" height="532" viewBox="0 0 375 532" fill="none" xmlns="http://www.w3.org/2000/svg">
<path d="M195.281 4.11125C274.905 -8.97072 313.529 35.1219 294.5 75.5002C274 119 319.5 136 381 93.5C455.5 42.0163 464.692 240.519 365 215C289.838 195.761 211.278 212.176 195.281 290.856C182.929 351.612 229.754 346.366 229.754 318.611C229.754 290.856 107.367 186.806 11.4999 290.856C-29.5001 335.356 -20.5102 383 -4.5 402.5C70.7319 494.131 136.254 410.111 128.254 392.111C120.254 374.111 82.2538 379.755 82.2538 448.611C82.2538 487.815 119.194 522.245 149.774 530.279" stroke="url(#paint0_linear)" stroke-width="2" stroke-linecap="round"/>
<defs>
<linearGradient id="paint0_linear" x1="211.024" y1="2" x2="211.024" y2="530.279" gradientUnits="userSpaceOnUse">
<stop stop-color="#FD5D75"/>
<stop offset="1" stop-color="#FE7A58"/>
</linearGradient>
</defs>
</svg>
