<svg width="1440" height="278" viewBox="0 0 1440 278" fill="none" xmlns="http://www.w3.org/2000/svg">
<path d="M-34 230.369C20.9292 166.784 165.587 58.6878 304.785 134.991C427.471 189.655 500.82 107.526 512.99 80.0605C525.159 52.5948 509.354 12.7862 488.65 69.0746C474.506 107.526 463.915 181.232 462.336 230.369C494.241 163.454 554.236 77.8633 541.605 172.942C526.083 289.794 548.221 326.98 634.36 172.942C655.583 134.991 629.755 107.292 610.02 163.454C590.285 219.617 677.777 262.828 741.916 80.0605C756.169 35.1177 763.949 -43.735 722.181 49.5993C675.475 153.967 696.854 485.545 841.249 69.0746C855.365 28.3603 848.148 -45.8459 814.936 49.5993C778.097 155.465 802.766 323.485 891.902 134.991C907.96 101.035 937.753 70.3736 955.383 107.526C937.137 69.0746 896.836 178.977 934.004 196.913C966.566 212.626 996.169 94.2765 961.962 107.526C941.431 115.479 960.646 163.454 1055.37 117.014C1187.27 69.0746 1253.37 66.0784 1455 134.991" stroke="#FD3F92" stroke-width="4"/>
</svg>
