<svg width="76" height="85" viewBox="0 0 76 85" fill="none" xmlns="http://www.w3.org/2000/svg">
<path d="M74.5 46.0733C74.5 66.7779 58.1245 83.5001 38 83.5001C17.8755 83.5001 1.5 66.7779 1.5 46.0733C1.5 25.3688 17.8755 8.64648 38 8.64648C58.1245 8.64648 74.5 25.3688 74.5 46.0733Z" stroke="#222222" stroke-width="3"/>
<path d="M37 2.02441V9.19515M39 2.02441V9.19515" stroke="#222222"/>
<path d="M30.6229 5.07415H27.0371C25.912 5.07415 25 4.16212 25 3.03707C25 1.91203 25.912 1 27.0371 1H30.2995C30.5146 1 30.7291 1.02106 30.9401 1.06289L34.5716 1.78292C34.7283 1.81398 34.8743 1.69409 34.8743 1.53437C34.8743 1.39442 34.9877 1.28098 35.1277 1.28098H35.2857C35.5129 1.28098 35.6971 1.46518 35.6971 1.6924V1.77268C35.6971 2.04425 35.9173 2.26439 36.1888 2.26439H39.4569C39.7284 2.26439 39.9486 2.04425 39.9486 1.77268C39.9486 1.50112 40.1687 1.28098 40.4403 1.28098H42.0043C42.4437 1.28098 42.8645 1.45826 43.1714 1.77268C43.4784 2.08711 43.8992 2.26439 44.3386 2.26439H48.0868C48.5912 2.26439 49 2.67323 49 3.17756C49 3.68189 48.5912 4.09073 48.0868 4.09073H44.3386C43.8992 4.09073 43.4784 4.26802 43.1714 4.58244C42.8645 4.89686 42.4437 5.07415 42.0043 5.07415H40.4403C40.1687 5.07415 39.9486 4.854 39.9486 4.58244C39.9486 4.31088 39.7284 4.09073 39.4569 4.09073H36.1888C35.9173 4.09073 35.6971 4.31088 35.6971 4.58244V4.66272C35.6971 4.88994 35.5129 5.07415 35.2857 5.07415H35.1368C34.9918 5.07415 34.8743 4.95663 34.8743 4.81166C34.8743 4.65303 34.7347 4.53065 34.5774 4.55144L30.6229 5.07415Z" fill="#222222" stroke="#222222"/>
</svg>
